<svg xmlns="http://www.w3.org/2000/svg" width="50" height="50" viewBox="0 0 50 50">
  <defs>
    <style>
      .cls-1 {
        fill: none;
      }

      .cls-2 {
        fill: #231815;
      }
    </style>
  </defs>
  <g id="组_25" data-name="组 25" transform="translate(-966 -827)">
    <rect id="矩形_32" data-name="矩形 32" class="cls-1" width="50" height="50" transform="translate(966 827)"/>
    <g id="组_24" data-name="组 24" transform="translate(1723.933 -1497.794)">
      <path id="路径_127" data-name="路径 127" class="cls-2" d="M-549.41,2325.794h-15.042a3.89,3.89,0,0,0-3.89,3.89v15.042a3.89,3.89,0,0,0,3.89,3.89h15.042a3.89,3.89,0,0,0,3.89-3.89v-15.042A3.89,3.89,0,0,0-549.41,2325.794Zm1.114,18.932a1.115,1.115,0,0,1-1.114,1.114h-15.042a1.115,1.115,0,0,1-1.114-1.114v-15.042a1.115,1.115,0,0,1,1.114-1.114h15.042a1.115,1.115,0,0,1,1.114,1.114Z" transform="translate(-162.413)"/>
      <path id="路径_128" data-name="路径 128" class="cls-2" d="M-549.41,2506.794h-15.042a3.89,3.89,0,0,0-3.89,3.89v15.042a3.89,3.89,0,0,0,3.89,3.89h15.042a3.89,3.89,0,0,0,3.89-3.89v-15.042A3.89,3.89,0,0,0-549.41,2506.794Zm1.114,18.932a1.115,1.115,0,0,1-1.114,1.114h-15.042a1.115,1.115,0,0,1-1.114-1.114v-15.042a1.115,1.115,0,0,1,1.114-1.114h15.042a1.115,1.115,0,0,1,1.114,1.114Z" transform="translate(-162.413 -155.875)"/>
      <path id="路径_129" data-name="路径 129" class="cls-2" d="M-738,2507.169h-15.042a3.89,3.89,0,0,0-3.89,3.89V2526.1a3.89,3.89,0,0,0,3.89,3.89H-738a3.89,3.89,0,0,0,3.89-3.89v-15.042A3.89,3.89,0,0,0-738,2507.169Zm1.114,18.932a1.115,1.115,0,0,1-1.114,1.114h-15.042a1.115,1.115,0,0,1-1.114-1.114v-15.042a1.115,1.115,0,0,1,1.114-1.114H-738a1.115,1.115,0,0,1,1.114,1.114Z" transform="translate(0 -156.198)"/>
      <path id="路径_130" data-name="路径 130" class="cls-2" d="M-745.361,2356.923a9.131,9.131,0,0,0,6.026-2.266l4.89,3.743a1.383,1.383,0,0,0,.843.286,1.386,1.386,0,0,0,1.1-.544,1.388,1.388,0,0,0-.258-1.946l-4.782-3.66a9.115,9.115,0,0,0,1.35-4.783,9.181,9.181,0,0,0-9.171-9.171,9.181,9.181,0,0,0-9.171,9.171A9.181,9.181,0,0,0-745.361,2356.923Zm0-15.566a6.4,6.4,0,0,1,6.395,6.395,6.4,6.4,0,0,1-6.395,6.395,6.4,6.4,0,0,1-6.395-6.395A6.4,6.4,0,0,1-745.361,2341.357Z" transform="translate(-2.068 -11.012)"/>
    </g>
  </g>
</svg>
