<svg xmlns="http://www.w3.org/2000/svg" width="50" height="50" viewBox="0 0 50 50">
  <defs>
    <style>
      .cls-1 {
        fill: #231815;
      }

      .cls-2 {
        fill: none;
      }
    </style>
  </defs>
  <g id="组_23" data-name="组 23" transform="translate(-976 -850)">
    <g id="组_22" data-name="组 22" transform="translate(1884.958 -1459.682)">
      <path id="路径_123" data-name="路径 123" class="cls-1" d="M-701.017,2309.794H-716.35a3.966,3.966,0,0,0-3.965,3.965v15.333a3.965,3.965,0,0,0,3.965,3.965h15.333a3.965,3.965,0,0,0,3.965-3.965v-15.333A3.965,3.965,0,0,0-701.017,2309.794Zm1.135,19.3a1.137,1.137,0,0,1-1.135,1.135H-716.35a1.137,1.137,0,0,1-1.135-1.135v-15.333a1.137,1.137,0,0,1,1.135-1.136h15.333a1.137,1.137,0,0,1,1.135,1.136Z" transform="translate(-161.906)"/>
      <path id="路径_124" data-name="路径 124" class="cls-1" d="M-701.017,2490.794H-716.35a3.966,3.966,0,0,0-3.965,3.965v15.333a3.965,3.965,0,0,0,3.965,3.965h15.333a3.965,3.965,0,0,0,3.965-3.965v-15.333A3.965,3.965,0,0,0-701.017,2490.794Zm1.135,19.3a1.137,1.137,0,0,1-1.135,1.135H-716.35a1.137,1.137,0,0,1-1.135-1.135v-15.333a1.137,1.137,0,0,1,1.135-1.135h15.333a1.137,1.137,0,0,1,1.135,1.135Z" transform="translate(-161.906 -155.389)"/>
      <path id="路径_125" data-name="路径 125" class="cls-1" d="M-889.608,2491.169h-15.333a3.966,3.966,0,0,0-3.965,3.966v15.333a3.966,3.966,0,0,0,3.965,3.966h15.333a3.966,3.966,0,0,0,3.965-3.966v-15.333A3.966,3.966,0,0,0-889.608,2491.169Zm1.135,19.3a1.137,1.137,0,0,1-1.135,1.135h-15.333a1.137,1.137,0,0,1-1.135-1.135v-15.333a1.137,1.137,0,0,1,1.135-1.135h15.333a1.136,1.136,0,0,1,1.135,1.135Z" transform="translate(0 -155.711)"/>
      <path id="路径_126" data-name="路径 126" class="cls-1" d="M-893.475,2324.254l5.441-5.441v15.743a1.415,1.415,0,0,0,1.415,1.415,1.415,1.415,0,0,0,1.415-1.415V2318.85l5.441,5.44a1.411,1.411,0,0,0,1,.415,1.411,1.411,0,0,0,1-.415,1.415,1.415,0,0,0,0-2l-7.737-7.738a1.411,1.411,0,0,0-1.12-.552h-.019a1.415,1.415,0,0,0-1,.415l-7.838,7.838a1.415,1.415,0,0,0,0,2A1.415,1.415,0,0,0-893.475,2324.254Z" transform="translate(-11.174 -3.611)"/>
    </g>
    <rect id="矩形_31" data-name="矩形 31" class="cls-2" width="50" height="50" transform="translate(976 850)"/>
  </g>
</svg>
