<svg xmlns="http://www.w3.org/2000/svg" width="36" height="36" viewBox="0 0 36 36">
  <defs>
    <style>
      .cls-1 {
        fill: #231815;
      }

      .cls-2 {
        fill: none;
      }
    </style>
  </defs>
  <g id="组_37" data-name="组 37" transform="translate(-444.418 -261.418)">
    <g id="组_36" data-name="组 36" transform="translate(447.947 264.947)">
      <path id="路径_138" data-name="路径 138" class="cls-1" d="M8988.595,3230.724h-4.119v-2.491a.923.923,0,1,0-1.846,0v2.491h-10.366v-2.491a.922.922,0,1,0-1.845,0v2.491H8966.3a3.556,3.556,0,0,0-3.554,3.553v18.731a3.557,3.557,0,0,0,3.554,3.553h22.295a3.557,3.557,0,0,0,3.552-3.553v-18.731A3.557,3.557,0,0,0,8988.595,3230.724Zm-22.295,1.846h4.119v2.491a.922.922,0,1,0,1.845,0v-2.491h10.366v2.491a.923.923,0,1,0,1.846,0v-2.491h4.119a1.708,1.708,0,0,1,1.706,1.707v4.475h-25.71v-4.475A1.709,1.709,0,0,1,8966.3,3232.57Zm22.295,22.146H8966.3a1.71,1.71,0,0,1-1.709-1.707V3240.6h25.71v12.411A1.708,1.708,0,0,1,8988.595,3254.715Z" transform="translate(-8962.746 -3227.31)"/>
      <path id="路径_139" data-name="路径 139" class="cls-1" d="M8974.362,3262.126H8971.5a.923.923,0,1,0,0,1.846h2.859a.923.923,0,0,0,0-1.846Z" transform="translate(-8966.967 -3246.07)"/>
      <path id="路径_140" data-name="路径 140" class="cls-1" d="M8974.362,3270.263H8971.5a.923.923,0,1,0,0,1.846h2.859a.923.923,0,0,0,0-1.846Z" transform="translate(-8966.967 -3250.455)"/>
      <path id="路径_141" data-name="路径 141" class="cls-1" d="M8974.362,3278.4H8971.5a.923.923,0,1,0,0,1.845h2.859a.923.923,0,1,0,0-1.845Z" transform="translate(-8966.967 -3254.839)"/>
      <path id="路径_142" data-name="路径 142" class="cls-1" d="M8993.3,3262.126h-2.859a.923.923,0,0,0,0,1.846h2.859a.923.923,0,0,0,0-1.846Z" transform="translate(-8977.174 -3246.07)"/>
      <path id="路径_143" data-name="路径 143" class="cls-1" d="M8993.3,3270.263h-2.859a.923.923,0,0,0,0,1.846h2.859a.923.923,0,0,0,0-1.846Z" transform="translate(-8977.174 -3250.455)"/>
      <path id="路径_144" data-name="路径 144" class="cls-1" d="M8993.3,3278.4h-2.859a.923.923,0,0,0,0,1.845h2.859a.923.923,0,1,0,0-1.845Z" transform="translate(-8977.174 -3254.839)"/>
      <path id="路径_145" data-name="路径 145" class="cls-1" d="M9012.245,3262.126h-2.86a.923.923,0,0,0,0,1.846h2.86a.923.923,0,1,0,0-1.846Z" transform="translate(-8987.38 -3246.07)"/>
      <path id="路径_146" data-name="路径 146" class="cls-1" d="M9012.245,3270.263h-2.86a.923.923,0,0,0,0,1.846h2.86a.923.923,0,1,0,0-1.846Z" transform="translate(-8987.38 -3250.455)"/>
      <path id="路径_147" data-name="路径 147" class="cls-1" d="M9012.245,3278.4h-2.86a.923.923,0,0,0,0,1.845h2.86a.923.923,0,1,0,0-1.845Z" transform="translate(-8987.38 -3254.839)"/>
    </g>
    <rect id="矩形_42" data-name="矩形 42" class="cls-2" width="36" height="36" transform="translate(444.418 261.418)"/>
  </g>
</svg>
