<?xml version="1.0" standalone="no"?><!DOCTYPE svg PUBLIC "-//W3C//DTD SVG 1.1//EN" "http://www.w3.org/Graphics/SVG/1.1/DTD/svg11.dtd"><svg t="1578378134562" class="icon" viewBox="0 0 1024 1024" version="1.1" xmlns="http://www.w3.org/2000/svg" p-id="1139" width="18" height="18" xmlns:xlink="http://www.w3.org/1999/xlink"><defs><style type="text/css"></style></defs><path d="M83.333 383.333c30 0 30-30 30-30v-179.58c0-33.36 27.001-60.42 60.42-60.42h179.58c0 0 30 0 30-30s-30-30-30-30h-179.639c-66.54 0-120.361 53.879-120.361 120.361v179.639c0 0 0 30 30 30z" p-id="1140" fill="#333333"></path><path d="M233.333 503.333c0 16.56 13.44 30 30 30h480c16.56 0 30-13.44 30-30s-13.44-30-30-30h-480c-16.56 0-30 13.44-30 30z" p-id="1141" fill="#333333"></path><path d="M832.972 53.333h-179.639c0 0-30 0-30 30s30 30 30 30h179.58c33.42 0 60.42 27.060 60.42 60.42v179.58c0 0 0 30 30 30s30-30 30-30v-179.639c0-66.48-53.82-120.361-120.361-120.361z" p-id="1142" fill="#333333"></path><path d="M353.333 893.333h-179.58c-33.42 0-60.42-27.060-60.42-60.42v-179.58c0 0 0-30-30-30s-30 30-30 30v179.639c0 66.48 53.82 120.361 120.361 120.361h179.639c0 0 30 0 30-30s-30-30-30-30z" p-id="1143" fill="#333333"></path><path d="M923.333 623.333c-30 0-30 30-30 30v179.58c0 33.36-27.001 60.42-60.42 60.42h-179.58c0 0-30 0-30 30s30 30 30 30h179.639c66.54 0 120.361-53.879 120.361-120.361v-179.639c0 0 0-30-30-30z" p-id="1144" fill="#333333"></path></svg>