<?xml version="1.0" standalone="no"?><!DOCTYPE svg PUBLIC "-//W3C//DTD SVG 1.1//EN" "http://www.w3.org/Graphics/SVG/1.1/DTD/svg11.dtd"><svg t="1578314348479" class="icon" viewBox="0 0 1024 1024" version="1.1" xmlns="http://www.w3.org/2000/svg" p-id="2221" width="25" height="25" xmlns:xlink="http://www.w3.org/1999/xlink"><defs><style type="text/css"></style></defs><path d="M0 0h1024v1024H0z" fill-opacity="0" opacity=".64" p-id="2222" fill="#ffffff"></path><path d="M135.964444 384h56.888889a7.964444 7.964444 0 0 0 7.964445-7.964444V200.248889h175.217778a7.964444 7.964444 0 0 0 7.964444-7.964445v-56.888888a7.964444 7.964444 0 0 0-7.964444-7.964445H196.266667a67.697778 67.697778 0 0 0-68.266667 68.266667v180.337778a7.964444 7.964444 0 0 0 7.964444 7.964444z m512-183.751111h175.786667v175.786667a7.964444 7.964444 0 0 0 7.964445 7.964444h56.888888a7.964444 7.964444 0 0 0 7.964445-7.964444V196.266667a67.697778 67.697778 0 0 0-68.266667-68.266667h-180.337778a7.964444 7.964444 0 0 0-7.964444 7.964444v56.888889a7.964444 7.964444 0 0 0 7.964444 7.395556z m-271.928888 625.777778H200.248889v-178.062223a7.964444 7.964444 0 0 0-7.964445-7.964444h-56.888888a7.964444 7.964444 0 0 0-7.964445 7.964444v179.768889a67.697778 67.697778 0 0 0 68.266667 68.266667h180.337778a7.964444 7.964444 0 0 0 7.964444-7.964444v-56.888889a7.964444 7.964444 0 0 0-7.964444-7.395556z m512-183.751111h-56.888889a7.964444 7.964444 0 0 0-7.964445 7.964444v175.786667h-175.217778a7.964444 7.964444 0 0 0-7.964444 7.964444v56.888889a7.964444 7.964444 0 0 0 7.964444 7.964444h179.768889a67.697778 67.697778 0 0 0 68.266667-68.266666v-182.613334a7.964444 7.964444 0 0 0-7.964444-7.964444z m15.928888-163.84H120.035556a7.964444 7.964444 0 0 0-6.257778 5.688888v56.888889a7.964444 7.964444 0 0 0 7.964444 7.964445h782.222222a7.964444 7.964444 0 0 0 6.257778-9.102222v-56.888889a7.964444 7.964444 0 0 0-6.257778-6.826667z" fill="#ffffff" opacity=".64" p-id="2223"></path></svg>